<svg xmlns="http://www.w3.org/2000/svg" xmlns:xlink="http://www.w3.org/1999/xlink" width="310px" height="316px" viewBox="0 0 309.6842376850709 316.15925058548015">
  <g id="8f88e7f7-a592-4b36-b7b9-8ff150b3a5ec">
<g style="">
		<g id="947c4658-1c73-47e6-87ef-32600e5cec18">
<path style="stroke: rgb(193,193,193); stroke-width: 0; stroke-dasharray: none; stroke-linecap: butt; stroke-dashoffset: 0; stroke-linejoin: miter; stroke-miterlimit: 4; fill: rgb(39,75,70); fill-rule: nonzero; opacity: 1;" transform="matrix(0.348718 0 0 0.348718 154.842002 158.079504) matrix(1 0 0 1 0 0)  translate(-501.483643, -516.474242)" d="M 492.23 895.77 C 487.08 893.29 489.18 885.00 494.95 885.00 C 500.59 885.00 503.02 890.98 499.00 895.00 C 496.77 897.23 495.55 897.37 492.23 895.77 M 566.02 895.22 C 563.92 893.52 563.82 892.72 563.83 877.49 C 563.85 862.30 563.95 861.46 566.03 859.77 C 568.80 857.53 569.16 857.55 572.37 860.07 L 575.00 862.15 L 575.00 877.57 C 575.00 891.67 574.83 893.17 573.00 895.00 C 570.53 897.47 568.86 897.52 566.02 895.22 M 534.55 884.66 C 532.03 882.82 533.20 879.75 536.25 880.18 C 537.87 880.41 538.50 881.17 538.50 882.92 C 538.50 885.85 537.05 886.49 534.55 884.66 M 426.32 877.40 C 425.62 875.57 427.65 873.93 429.66 874.70 C 430.40 874.98 431.00 876.07 431.00 877.11 C 431.00 879.47 427.21 879.71 426.32 877.40 M 599.36 877.51 C 599.02 876.60 599.21 875.39 599.80 874.80 C 601.32 873.28 604.21 874.67 603.81 876.74 C 603.37 879.04 600.16 879.59 599.36 877.51 M 492.22 870.44 C 490.08 868.95 490.00 868.29 490.00 852.94 C 490.00 838.33 490.17 836.83 492.00 835.00 C 493.10 833.90 494.87 833.00 495.93 833.00 C 498.05 833.00 500.97 835.47 501.05 837.32 C 501.07 837.97 501.06 845.25 501.03 853.50 C 500.97 867.45 500.81 868.62 498.87 870.25 C 496.30 872.40 495.07 872.44 492.22 870.44 M 360.67 869.33 C 359.20 867.87 360.04 865.00 361.94 865.00 C 364.49 865.00 365.48 866.72 363.96 868.54 C 362.64 870.13 361.69 870.36 360.67 869.33 M 634.25 869.28 C 633.56 869.04 633.00 868.02 633.00 867.02 C 633.00 865.08 634.73 864.02 636.75 864.73 C 637.44 864.97 638.00 865.75 638.00 866.46 C 638.00 868.19 635.81 869.84 634.25 869.28 M 457.65 862.17 C 456.31 860.68 456.00 858.10 456.00 848.23 C 456.00 836.84 456.13 836.02 458.22 834.56 C 461.16 832.50 462.59 832.59 465.00 835.00 C 466.76 836.76 467.00 838.33 467.00 848.28 C 467.00 856.87 466.63 860.08 465.44 861.78 C 463.56 864.47 459.91 864.66 457.65 862.17 M 532.65 861.17 C 531.32 859.70 531.00 857.16 531.00 848.17 C 531.00 838.33 531.24 836.76 533.00 835.00 C 535.29 832.71 537.91 832.44 540.19 834.25 C 542.55 836.12 543.53 857.80 541.40 860.84 C 539.52 863.52 534.94 863.70 532.65 861.17 M 424.56 851.78 C 422.25 848.49 422.43 837.82 424.83 835.65 C 426.93 833.75 429.29 833.55 432.07 835.04 C 433.72 835.92 434.00 837.18 434.00 843.84 C 434.00 848.54 433.53 852.07 432.80 852.80 C 430.81 854.79 426.27 854.23 424.56 851.78 M 597.96 851.96 C 596.21 850.21 595.96 848.87 596.21 842.74 C 596.48 836.18 596.72 835.44 599.13 834.09 C 601.50 832.77 602.04 832.80 604.38 834.33 C 606.82 835.93 607.00 836.57 607.00 843.47 C 607.00 850.00 606.73 851.07 604.78 852.44 C 601.83 854.51 600.41 854.41 597.96 851.96 M 564.65 845.17 C 561.20 841.35 564.06 834.00 569.00 834.00 C 571.89 834.00 575.00 837.55 575.00 840.85 C 575.00 846.26 568.21 849.10 564.65 845.17 M 361.65 844.17 C 358.38 840.55 360.75 834.00 365.33 834.00 C 367.63 834.00 371.00 837.57 371.00 840.00 C 371.00 842.51 367.60 846.00 365.15 846.00 C 364.14 846.00 362.57 845.18 361.65 844.17 M 392.65 844.17 C 387.39 838.36 395.46 830.46 401.00 836.00 C 403.40 838.40 403.54 840.79 401.44 843.78 C 399.52 846.52 394.97 846.73 392.65 844.17 M 631.22 844.44 C 626.92 841.43 629.44 834.00 634.77 834.00 C 637.10 834.00 640.00 837.45 640.00 840.22 C 640.00 842.28 636.60 846.00 634.72 846.00 C 634.02 846.00 632.44 845.30 631.22 844.44 M 661.05 844.05 C 659.92 842.92 659.00 841.20 659.00 840.22 C 659.00 837.65 661.83 834.00 663.83 834.00 C 666.62 834.00 670.00 836.94 670.00 839.37 C 670.00 844.51 664.43 847.43 661.05 844.05 M 331.39 842.57 C 330.48 840.20 331.39 836.77 333.25 835.61 C 336.88 833.33 340.80 839.13 337.95 842.56 C 336.41 844.41 332.10 844.43 331.39 842.57 M 304.55 841.66 C 302.45 840.13 302.98 837.33 305.55 836.34 C 307.94 835.42 310.74 838.60 309.41 840.71 C 307.95 843.02 306.73 843.26 304.55 841.66 M 690.67 842.33 C 688.49 840.16 690.71 836.00 694.05 836.00 C 695.83 836.00 697.21 840.04 695.95 841.56 C 694.70 843.06 691.82 843.48 690.67 842.33 M 716.67 841.33 C 716.30 840.97 716.00 839.84 716.00 838.83 C 716.00 836.52 719.81 836.33 720.68 838.60 C 721.50 840.74 718.27 842.94 716.67 841.33 M 325.72 816.96 C 309.45 814.23 293.27 799.33 287.99 782.22 C 286.07 776.03 286.00 772.76 286.00 694.33 C 286.00 641.28 286.35 612.21 287.01 610.98 C 287.57 609.94 289.59 608.79 291.51 608.43 L 295.00 607.78 L 295.00 598.89 L 295.00 590.00 L 292.15 590.00 C 286.13 590.00 286.00 589.31 286.00 557.17 C 286.00 522.93 285.68 524.00 295.85 524.00 C 306.55 524.00 305.46 510.14 305.78 650.64 C 306.04 769.89 306.10 773.20 308.03 778.36 C 310.73 785.57 315.93 791.33 322.78 794.69 L 328.50 797.50 L 355.66 797.82 C 387.72 798.20 386.27 797.68 385.80 808.60 C 385.53 814.75 385.24 815.58 382.93 816.87 C 379.36 818.87 375.39 817.65 373.49 813.99 C 372.14 811.37 371.41 811.00 367.64 811.00 C 364.13 811.00 363.10 811.44 362.06 813.39 C 361.36 814.70 359.68 816.28 358.34 816.89 C 355.57 818.15 333.11 818.20 325.72 816.96 M 400.00 816.00 C 398.42 814.42 398.00 812.67 398.00 807.65 C 398.00 796.95 385.22 798.00 515.58 798.03 L 629.50 798.06 L 633.50 800.53 C 638.45 803.57 639.15 803.58 642.67 800.64 C 644.99 798.69 646.96 798.19 653.64 797.81 C 666.84 797.06 675.57 791.64 681.12 780.77 C 683.99 775.14 684.90 762.99 684.96 729.75 C 685.00 704.36 685.10 702.90 687.00 701.00 C 688.10 699.90 689.41 699.00 689.92 699.00 C 691.94 699.00 694.00 700.29 694.00 701.55 C 694.00 704.10 696.01 704.11 696.98 701.56 C 698.13 698.54 699.03 698.39 701.96 700.76 C 704.12 702.52 704.14 702.83 704.32 739.51 L 704.50 776.50 L 701.90 783.60 C 693.82 805.70 676.81 818.00 654.34 818.00 C 648.11 818.00 647.60 817.82 644.56 814.50 C 640.48 810.04 635.49 809.58 633.99 813.52 C 633.47 814.90 631.87 816.48 630.45 817.02 C 628.82 817.64 586.43 818.00 514.93 818.00 C 403.33 818.00 401.98 817.98 400.00 816.00 M 261.45 813.55 C 257.00 809.09 259.07 801.90 265.22 800.44 C 267.41 799.92 268.55 800.40 270.97 802.82 C 274.77 806.62 274.80 809.35 271.08 813.08 C 267.51 816.64 264.69 816.78 261.45 813.55 M 719.32 814.81 C 714.24 812.35 714.29 804.82 719.41 801.47 C 725.05 797.77 731.97 804.70 729.38 811.46 C 728.78 813.01 723.95 816.07 722.30 815.93 C 721.86 815.90 720.52 815.39 719.32 814.81 M 234.50 783.20 C 231.34 782.54 230.00 780.98 230.00 777.95 C 230.00 774.80 232.28 772.00 234.84 772.00 C 235.77 772.00 241.69 766.83 248.00 760.50 C 257.90 750.57 259.91 749.00 262.70 749.00 C 265.85 749.00 268.00 751.07 268.00 754.10 C 268.00 756.02 241.99 781.81 239.09 782.77 C 237.67 783.24 235.60 783.43 234.50 783.20 M 722.57 781.43 C 720.60 779.46 720.57 777.60 722.49 776.01 C 724.80 774.09 729.00 775.58 729.00 778.32 C 729.00 782.60 725.46 784.31 722.57 781.43 M 263.67 781.33 C 262.46 780.13 262.97 776.23 264.40 775.68 C 266.75 774.78 269.34 777.36 268.56 779.83 C 267.90 781.89 265.09 782.76 263.67 781.33 M 734.85 769.48 C 728.61 763.14 723.07 756.82 722.54 755.43 C 721.27 752.10 722.86 749.60 726.50 749.17 C 728.93 748.88 730.98 750.50 741.65 761.15 C 751.04 770.52 754.00 774.09 754.00 776.03 C 754.00 779.34 752.29 781.00 748.90 781.00 C 746.77 781.00 743.76 778.53 734.85 769.48 M 780.17 776.71 C 779.31 775.67 779.36 774.89 780.37 773.51 C 782.18 771.03 785.25 772.23 784.82 775.24 C 784.45 777.86 781.82 778.69 780.17 776.71 M 336.56 773.78 C 335.70 772.56 335.00 770.86 335.00 770.00 C 335.00 769.14 335.70 767.44 336.56 766.22 L 338.11 764.00 L 383.33 764.00 C 433.21 764.00 433.00 763.97 433.00 770.00 C 433.00 776.03 433.21 776.00 383.33 776.00 L 338.11 776.00 L 336.56 773.78 M 456.68 774.20 C 454.22 771.48 454.55 767.34 457.38 765.49 C 459.25 764.26 462.15 763.99 471.02 764.22 C 482.05 764.49 482.33 764.56 484.37 767.30 C 486.30 769.88 486.34 770.30 484.94 772.80 C 483.44 775.48 483.35 775.50 470.89 775.78 C 459.74 776.03 458.18 775.85 456.68 774.20 M 507.44 773.56 C 505.51 770.60 506.26 767.53 509.41 765.47 C 511.36 764.19 521.23 764.02 581.48 764.24 L 651.28 764.50 L 653.34 767.25 L 655.39 770.00 L 653.34 772.75 L 651.28 775.50 L 580.17 775.76 L 509.05 776.01 L 507.44 773.56 M 185.02 746.29 C 181.41 741.71 184.19 736.00 190.04 736.00 C 193.45 736.00 196.00 738.85 196.00 742.67 C 196.00 748.88 188.89 751.22 185.02 746.29 M 811.53 748.05 C 811.17 747.46 811.16 746.06 811.52 744.93 C 812.53 741.75 817.50 742.64 817.50 746.00 C 817.50 747.96 816.93 748.57 814.84 748.81 C 813.38 748.98 811.89 748.63 811.53 748.05 M 338.50 745.81 C 334.16 743.34 333.78 739.11 337.63 736.07 C 340.11 734.12 341.54 734.00 361.50 734.00 C 381.46 734.00 382.89 734.12 385.37 736.07 C 388.66 738.66 388.71 741.38 385.55 744.55 C 383.09 747.00 383.09 747.00 361.80 746.97 C 347.82 746.95 339.81 746.55 338.50 745.81 M 410.50 744.60 C 408.57 742.66 408.05 741.38 408.55 739.73 C 409.86 735.34 411.64 734.50 419.62 734.50 C 425.93 734.50 427.39 734.82 428.58 736.44 C 430.50 739.06 430.37 741.33 428.13 744.08 C 426.61 745.96 425.05 746.47 419.70 746.81 C 413.66 747.19 412.92 747.01 410.50 744.60 M 468.75 745.92 C 466.55 744.64 466.45 739.69 468.57 737.57 C 471.87 734.28 479.00 737.20 479.00 741.85 C 479.00 745.94 472.93 748.36 468.75 745.92 M 519.22 745.44 C 516.07 743.24 516.27 738.72 519.63 736.07 C 522.24 734.03 523.04 734.00 585.91 734.00 C 641.90 734.00 649.82 734.19 651.78 735.56 C 654.93 737.76 654.73 742.28 651.37 744.93 C 648.76 746.97 647.96 747.00 585.09 747.00 C 529.10 747.00 521.18 746.81 519.22 745.44 M 218.75 744.92 C 217.76 744.35 217.00 742.72 217.00 741.19 C 217.00 739.00 220.95 734.54 237.75 717.79 C 249.16 706.41 259.68 696.66 261.13 696.12 C 263.09 695.39 264.29 695.52 265.88 696.63 C 270.02 699.53 268.66 702.59 258.75 712.75 C 243.21 728.66 224.19 746.00 222.29 745.97 C 221.31 745.95 219.71 745.48 218.75 744.92 M 742.75 724.77 C 721.59 703.10 719.81 700.59 723.20 697.20 C 726.66 693.74 729.06 695.49 751.28 717.80 C 763.23 729.79 773.00 740.14 773.00 740.80 C 773.00 742.96 769.06 746.00 766.25 746.01 C 763.98 746.02 759.87 742.30 742.75 724.77 M 261.95 732.95 C 260.37 731.37 260.17 730.55 261.01 728.98 C 263.07 725.13 268.87 727.68 267.54 731.86 C 266.63 734.75 264.22 735.22 261.95 732.95 M 722.93 732.42 C 721.27 730.42 722.80 727.64 725.78 727.19 C 728.52 726.78 730.69 730.47 728.95 732.56 C 727.38 734.46 724.57 734.39 722.93 732.42 M 449.03 729.92 C 448.99 726.57 451.51 708.68 453.47 698.50 C 454.31 694.10 455.00 690.15 455.00 689.73 C 455.00 688.91 407.49 639.45 380.15 611.81 L 363.63 595.11 L 363.88 534.31 C 364.02 500.86 363.81 451.11 363.42 423.75 L 362.71 374.00 L 351.31 374.00 C 339.25 374.00 335.07 372.87 333.03 369.06 C 331.21 365.65 331.83 361.08 334.47 358.44 L 336.95 355.96 L 358.22 356.09 C 377.71 356.20 379.98 356.03 385.15 354.07 C 393.35 350.97 399.24 345.31 403.73 336.24 L 407.50 328.61 L 407.84 307.81 L 408.17 287.00 L 454.59 287.00 C 484.28 287.00 501.00 287.35 501.00 287.98 C 501.00 289.05 475.41 339.71 446.70 395.50 C 436.79 414.75 420.28 446.96 410.02 467.07 C 399.76 487.18 390.61 504.72 389.68 506.04 C 388.76 507.36 388.00 508.79 388.00 509.22 C 388.00 509.65 415.45 510.00 449.00 510.00 C 489.08 510.00 510.00 510.34 510.00 511.00 C 510.00 512.08 480.24 631.59 474.40 654.00 C 461.86 702.03 454.68 725.08 450.53 730.56 C 449.12 732.43 449.06 732.40 449.03 729.92 M 450.08 634.08 C 454.18 629.97 454.15 624.38 450.00 619.65 L 447.00 616.24 L 447.00 595.55 L 447.00 574.87 L 450.50 571.56 C 455.11 567.21 455.31 562.50 451.08 557.77 C 448.61 554.99 447.48 554.50 443.66 554.50 C 438.48 554.50 434.50 557.44 433.50 562.02 C 432.78 565.27 435.20 571.76 437.45 572.62 C 438.78 573.13 439.00 576.28 439.00 595.03 L 439.00 616.85 L 436.00 619.85 C 431.15 624.69 432.02 632.32 437.78 635.44 C 442.29 637.89 446.76 637.39 450.08 634.08 M 412.08 605.08 C 416.18 600.97 416.15 595.38 412.00 590.65 C 409.06 587.31 409.00 587.01 409.00 576.44 L 409.00 565.65 L 412.25 562.93 C 415.03 560.61 415.50 559.57 415.50 555.71 C 415.50 550.36 413.31 547.46 408.21 546.05 C 397.92 543.21 390.72 554.89 398.18 562.33 C 401.29 565.42 401.37 565.76 401.81 576.20 L 402.25 586.90 L 398.63 590.32 C 395.66 593.11 395.00 594.45 395.00 597.65 C 395.00 604.23 398.76 607.80 405.83 607.94 C 408.22 607.98 409.97 607.18 412.08 605.08 M 476.42 572.39 C 477.75 571.88 478.00 569.67 478.00 558.29 C 478.00 545.22 478.08 544.69 480.59 541.71 C 482.60 539.32 483.04 537.96 482.57 535.62 C 480.66 526.03 468.17 525.25 466.41 534.61 C 465.89 537.38 466.22 538.80 467.87 541.04 C 469.79 543.64 470.00 545.22 470.00 557.26 C 470.00 572.52 470.85 574.53 476.42 572.39 M 403.01 445.33 C 408.66 442.00 409.51 435.79 405.01 430.67 L 402.03 427.26 L 402.67 413.18 L 403.31 399.10 L 414.65 387.89 C 424.92 377.75 426.00 376.34 426.01 373.09 C 426.01 370.15 426.56 369.19 429.01 367.80 C 435.49 364.11 435.49 355.59 429.00 351.20 C 424.40 348.10 419.57 348.75 415.75 352.98 C 412.28 356.83 412.19 360.89 415.50 364.82 C 420.29 370.50 419.34 372.70 406.53 385.79 L 395.05 397.50 L 395.03 412.27 L 395.00 427.04 L 392.43 428.22 C 387.42 430.50 385.39 438.48 388.77 442.62 C 392.49 447.19 398.08 448.25 403.01 445.33 M 451.15 332.92 C 453.91 331.44 456.26 325.47 455.48 321.92 C 454.66 318.18 449.64 314.00 445.97 314.00 C 439.91 314.00 435.00 318.47 435.00 324.00 C 435.00 326.81 437.58 331.66 439.75 332.92 C 442.07 334.27 448.62 334.27 451.15 332.92 M 485.52 717.32 L 474.55 705.76 L 478.95 697.63 C 483.36 689.49 516.44 631.64 562.22 552.00 C 575.65 528.62 591.15 501.62 596.66 492.00 C 607.27 473.47 623.00 444.54 623.00 443.58 C 623.00 443.26 605.00 443.00 583.00 443.00 C 561.00 443.00 543.00 442.75 543.00 442.43 C 543.00 440.67 574.95 301.08 577.77 290.50 C 578.56 287.56 578.70 287.50 585.01 287.50 L 591.44 287.50 L 591.17 308.00 C 591.01 319.74 591.35 330.85 591.96 334.00 C 595.59 352.66 611.39 369.81 629.11 374.35 L 634.50 375.73 L 634.75 484.10 L 635.01 592.46 L 566.76 660.73 C 529.22 698.28 498.06 728.97 497.51 728.94 C 496.95 728.90 491.56 723.67 485.52 717.32 M 533.50 666.82 C 536.75 662.96 536.36 658.69 532.45 655.25 C 528.95 652.18 525.44 652.40 521.92 655.92 C 518.66 659.19 518.29 661.73 520.48 665.96 C 522.17 669.22 523.23 669.81 527.66 669.92 C 530.04 669.98 531.48 669.21 533.50 666.82 M 556.72 631.54 C 563.46 623.70 554.15 610.77 545.12 615.44 C 538.25 618.99 536.79 626.94 542.05 632.20 C 544.80 634.95 545.55 635.20 549.76 634.72 C 553.17 634.34 555.05 633.48 556.72 631.54 M 581.75 605.48 C 583.24 603.76 584.00 601.60 584.00 599.05 C 584.00 595.48 584.72 594.52 594.00 585.70 L 604.00 576.19 L 604.00 542.70 C 604.00 513.09 603.82 509.14 602.42 508.61 C 599.65 507.54 597.23 507.95 596.61 509.58 C 596.27 510.45 596.00 525.24 596.00 542.45 L 596.00 573.74 L 587.47 581.74 C 579.05 589.65 578.89 589.74 574.55 589.25 C 570.81 588.83 569.77 589.13 567.62 591.29 C 564.33 594.58 563.46 598.27 565.06 602.14 C 567.91 609.04 577.07 610.87 581.75 605.48 M 613.80 419.97 C 621.27 413.02 613.04 401.16 604.07 405.96 C 601.54 407.32 599.64 412.43 600.45 415.73 C 601.87 421.56 609.49 423.99 613.80 419.97 M 590.79 394.71 C 593.11 392.35 595.00 389.75 595.00 388.93 C 595.00 388.11 596.36 386.93 598.02 386.30 C 601.62 384.94 604.49 379.09 603.50 375.11 C 601.32 366.33 588.48 364.30 584.45 372.09 C 582.45 375.96 582.63 378.57 585.20 383.14 L 587.40 387.05 L 585.22 389.23 C 583.25 391.19 582.16 391.38 574.10 391.12 C 566.00 390.87 565.05 391.03 564.08 392.85 C 563.49 393.96 563.00 395.80 563.00 396.93 C 563.00 398.91 563.54 399.00 574.79 399.00 L 586.58 399.00 L 590.79 394.71 M 337.45 715.55 C 334.48 712.57 334.32 709.68 337.00 707.00 C 338.88 705.12 340.33 705.00 360.92 705.00 C 372.97 705.00 383.58 705.29 384.49 705.64 C 387.22 706.68 388.20 710.70 386.53 713.94 C 385.73 715.49 384.35 717.04 383.46 717.38 C 382.56 717.72 372.40 718.00 360.87 718.00 C 339.95 718.00 339.90 718.00 337.45 715.55 M 411.66 715.94 C 408.47 713.44 408.20 709.80 411.00 707.00 C 413.56 704.44 417.03 704.45 419.81 707.04 C 422.45 709.50 422.60 712.08 420.25 714.80 C 417.54 717.94 414.68 718.32 411.66 715.94 M 547.32 717.01 C 542.96 715.23 541.80 710.20 545.00 707.00 C 546.95 705.05 548.33 705.00 598.85 705.00 C 647.80 705.00 650.78 705.10 652.35 706.83 C 654.62 709.34 654.42 713.31 651.90 715.60 C 649.89 717.41 647.40 717.51 599.65 717.70 C 571.93 717.81 548.52 717.50 547.32 717.01 M 806.74 714.55 C 804.67 713.82 802.35 712.71 801.58 712.07 C 799.59 710.42 797.00 704.62 797.00 701.82 C 797.00 700.05 790.58 693.05 771.70 674.22 L 746.41 649.00 L 736.36 649.00 C 725.54 649.00 723.00 647.90 723.00 643.23 C 723.00 639.11 726.47 638.00 739.36 638.00 L 751.28 638.00 L 777.55 663.99 L 803.82 689.99 L 808.38 689.36 C 813.87 688.61 818.31 690.21 820.90 693.88 C 825.27 700.07 824.29 708.20 818.67 712.38 C 814.41 715.55 811.24 716.12 806.74 714.55 M 766.89 710.64 C 762.09 708.26 764.11 700.00 769.50 700.00 C 773.88 700.00 776.53 705.72 773.75 709.17 C 771.89 711.47 769.58 711.97 766.89 710.64 M 199.07 708.37 C 196.59 705.21 196.51 704.14 198.56 701.22 C 201.66 696.79 209.00 699.61 209.00 705.22 C 209.00 707.58 205.49 711.00 203.07 711.00 C 202.01 711.00 200.21 709.81 199.07 708.37 M 231.20 697.80 C 227.97 694.57 229.76 691.73 243.25 678.64 C 259.75 662.63 260.03 662.43 263.70 664.18 C 269.55 666.98 268.40 669.12 252.69 684.66 C 240.74 696.49 237.69 699.00 235.30 699.00 C 233.71 699.00 231.86 698.46 231.20 697.80 M 736.23 682.92 C 729.78 676.83 724.12 671.17 723.67 670.36 C 721.64 666.77 727.06 662.31 731.43 663.97 C 735.11 665.37 754.91 684.79 755.64 687.72 C 756.03 689.25 755.61 690.77 754.46 692.04 C 751.05 695.82 748.58 694.59 736.23 682.92 M 337.22 686.44 C 334.48 684.52 334.27 679.97 336.83 677.65 C 338.41 676.22 341.53 676.00 359.83 676.00 C 379.67 676.00 381.13 676.13 383.00 678.00 C 384.10 679.10 385.00 680.90 385.00 682.00 C 385.00 683.10 384.10 684.90 383.00 686.00 C 381.13 687.87 379.67 688.00 360.22 688.00 C 343.04 688.00 339.06 687.73 337.22 686.44 M 408.00 686.00 C 404.29 682.29 406.40 676.75 411.52 676.75 C 417.24 676.75 419.33 683.25 414.65 686.53 C 411.84 688.50 410.38 688.38 408.00 686.00 M 573.68 686.75 C 572.08 685.58 570.30 680.46 571.80 681.37 C 572.19 681.60 573.08 681.16 573.79 680.40 C 574.50 679.63 574.75 679.00 574.35 679.00 C 573.95 679.00 574.49 678.34 575.56 677.53 C 577.18 676.30 583.50 676.06 614.10 676.03 C 648.30 676.00 650.80 676.12 652.35 677.83 C 654.71 680.44 654.43 684.58 651.78 686.44 C 649.86 687.78 644.42 688.00 612.47 688.00 C 584.37 688.00 574.97 687.70 573.68 686.75 M 686.65 680.17 C 685.15 678.50 685.00 671.73 685.00 603.39 C 685.00 517.34 684.25 524.00 693.95 524.00 C 704.53 524.00 703.78 520.42 704.15 573.00 C 704.33 598.02 704.37 631.89 704.24 648.25 C 704.01 676.49 703.90 678.10 702.00 680.00 C 699.25 682.75 689.10 682.87 686.65 680.17 M 208.00 675.73 C 204.22 673.78 202.61 669.70 203.98 665.55 C 205.26 661.68 206.64 660.29 209.50 659.98 C 213.53 659.55 215.14 660.05 217.55 662.45 C 223.87 668.78 215.93 679.82 208.00 675.73 M 165.00 671.71 C 162.97 670.68 162.50 669.70 162.50 666.48 C 162.50 663.14 162.93 662.32 165.30 661.18 C 167.73 660.02 168.45 660.06 170.61 661.48 C 171.98 662.38 173.36 663.77 173.66 664.56 C 174.65 667.13 173.11 670.63 170.48 671.83 C 167.41 673.23 168.04 673.24 165.00 671.71 M 826.71 670.38 C 825.16 668.83 826.04 665.12 828.11 664.46 C 831.06 663.53 833.88 666.38 832.38 668.77 C 831.23 670.61 827.89 671.56 826.71 670.38 M 336.63 656.93 C 333.49 654.45 333.27 651.73 336.00 649.00 C 337.73 647.27 339.33 647.00 347.85 647.00 C 358.71 647.00 361.00 648.09 361.00 653.27 C 361.00 657.58 357.75 659.00 347.91 659.00 C 340.68 659.00 338.84 658.66 336.63 656.93 M 383.34 657.82 C 378.44 655.45 380.42 648.00 385.95 648.00 C 391.51 648.00 393.83 653.17 390.00 657.00 C 387.78 659.22 386.54 659.37 383.34 657.82 M 604.52 658.13 C 602.44 657.68 601.24 656.63 600.54 654.64 C 599.65 652.11 599.88 651.49 602.66 649.01 L 605.79 646.22 L 627.80 646.37 C 648.05 646.51 649.99 646.68 651.96 648.46 C 654.90 651.12 654.39 656.01 651.00 657.71 C 648.35 659.05 610.40 659.38 604.52 658.13 M 240.22 656.44 C 239.00 655.59 238.00 654.19 238.00 653.33 C 238.00 651.45 252.46 636.34 256.00 634.53 C 260.34 632.29 266.40 636.67 264.26 640.49 C 262.62 643.42 245.92 658.00 244.21 658.00 C 243.24 658.00 241.44 657.30 240.22 656.44 M 185.75 647.92 C 182.13 645.81 185.38 640.06 189.07 642.04 C 191.25 643.20 191.60 646.00 189.80 647.80 C 188.37 649.23 188.02 649.24 185.75 647.92 M 784.36 646.50 C 783.57 644.44 784.64 642.00 786.35 642.00 C 788.39 642.00 790.13 644.49 789.41 646.37 C 788.63 648.42 785.13 648.50 784.36 646.50 M 336.04 627.07 C 334.32 623.87 334.83 620.23 337.22 618.56 C 338.72 617.50 341.73 617.00 346.50 617.00 C 355.11 617.00 358.00 618.60 358.00 623.36 C 358.00 628.34 356.64 629.00 346.34 629.00 C 338.20 629.00 336.94 628.76 336.04 627.07 M 626.75 627.92 C 624.23 626.45 624.60 622.73 627.53 619.97 C 629.74 617.89 631.26 617.54 639.46 617.18 C 648.53 616.78 648.95 616.86 651.49 619.40 C 654.34 622.25 654.23 625.37 651.21 627.75 C 649.25 629.29 629.33 629.43 626.75 627.92 M 835.53 624.03 C 832.87 621.09 833.28 617.02 836.52 614.23 C 839.72 611.47 843.43 611.82 846.25 615.15 C 848.55 617.87 848.46 620.15 845.93 623.37 C 843.35 626.64 838.19 626.97 835.53 624.03 M 151.00 623.71 C 147.87 622.14 147.14 617.61 149.58 614.91 C 151.23 613.09 153.19 613.00 190.97 613.00 C 229.49 613.00 230.69 613.06 232.81 615.04 C 235.54 617.58 235.60 620.40 233.00 623.00 C 231.07 624.93 229.68 625.00 192.25 624.99 C 163.13 624.97 152.88 624.66 151.00 623.71 M 493.00 624.49 C 493.00 622.43 503.28 586.86 509.48 567.50 C 518.73 538.62 525.25 517.48 529.86 501.47 C 532.08 493.76 534.15 486.78 534.46 485.97 C 534.95 484.68 528.42 484.54 482.41 484.79 C 453.48 484.95 429.96 484.73 430.15 484.29 C 430.34 483.86 434.05 476.75 438.39 468.50 C 442.73 460.25 450.66 445.18 456.01 435.00 C 461.36 424.82 480.46 387.36 498.45 351.75 L 531.17 287.00 L 539.58 287.00 C 546.43 287.00 548.00 287.28 548.00 288.51 C 548.00 290.75 540.73 328.94 534.96 357.00 C 530.93 376.59 515.00 461.62 515.00 463.53 C 515.00 463.79 527.83 464.00 543.50 464.00 C 561.96 464.00 572.00 464.35 572.00 465.01 C 572.00 465.56 565.31 479.40 557.14 495.76 C 548.96 512.12 536.09 538.33 528.52 554.00 C 496.16 621.07 493.01 627.31 493.00 624.49 M 495.94 456.25 C 497.49 446.32 508.69 383.53 510.42 375.07 C 511.56 369.51 511.54 368.91 510.32 370.57 C 509.54 371.63 500.31 389.60 489.80 410.50 C 479.29 431.40 468.77 451.99 466.41 456.25 L 462.13 464.00 L 478.43 464.00 L 494.73 464.00 L 495.94 456.25 M 725.91 623.72 C 725.04 623.05 723.81 621.54 723.19 620.36 C 722.25 618.60 722.41 617.75 724.09 615.61 L 726.15 613.00 L 758.42 613.00 C 788.41 613.00 790.81 613.13 792.35 614.83 C 794.57 617.29 794.43 620.57 792.00 623.00 C 790.08 624.92 788.69 625.00 758.75 624.97 C 735.76 624.94 727.08 624.61 725.91 623.72 M 809.65 623.17 C 804.16 617.10 812.69 609.83 818.49 615.64 C 820.57 617.72 820.38 620.62 818.00 623.00 C 815.50 625.50 811.83 625.57 809.65 623.17 M 823.76 596.43 C 818.53 593.60 816.60 586.61 819.49 581.01 C 823.00 574.23 830.56 572.92 836.43 578.08 C 846.87 587.24 835.96 603.05 823.76 596.43 M 334.65 595.17 C 332.59 592.89 332.50 590.00 334.50 590.00 C 335.32 590.00 336.00 589.33 336.00 588.50 C 336.00 587.26 336.31 587.30 337.83 588.75 C 338.83 589.71 339.43 591.14 339.16 591.91 C 338.86 592.76 339.10 593.06 339.76 592.65 C 341.41 591.63 342.35 593.87 340.96 595.54 C 339.31 597.53 336.65 597.37 334.65 595.17 M 660.43 595.00 C 660.43 592.79 660.84 592.61 662.88 593.90 C 664.41 594.87 663.57 597.00 661.66 597.00 C 660.98 597.00 660.43 596.10 660.43 595.00 M 164.00 594.00 C 162.90 592.90 162.00 591.10 162.00 590.00 C 162.00 588.90 162.90 587.10 164.00 586.00 C 165.94 584.06 167.33 584.00 214.28 584.00 C 267.51 584.00 267.00 583.94 267.00 590.00 C 267.00 596.06 267.51 596.00 214.28 596.00 C 167.33 596.00 165.94 595.94 164.00 594.00 M 725.63 593.93 C 724.18 592.78 723.00 590.84 723.00 589.60 C 723.00 586.79 726.91 583.00 729.81 583.00 C 735.28 583.00 738.18 591.36 733.78 594.44 C 730.80 596.53 728.78 596.40 725.63 593.93 M 754.04 593.81 C 752.92 592.61 752.00 590.58 752.00 589.31 C 752.00 586.27 755.37 583.00 758.50 583.00 C 759.88 583.00 761.90 583.90 763.00 585.00 C 766.95 588.95 764.09 596.00 758.54 596.00 C 757.19 596.00 755.16 595.02 754.04 593.81 M 784.00 594.00 C 781.50 591.50 781.42 586.84 783.83 584.65 C 786.26 582.46 791.28 582.55 793.35 584.83 C 796.99 588.85 793.89 596.00 788.50 596.00 C 787.12 596.00 785.10 595.10 784.00 594.00 M 143.01 580.51 C 141.35 578.51 142.46 576.00 145.00 576.00 C 146.13 576.00 147.32 576.68 147.64 577.51 C 148.22 579.01 146.46 582.00 145.00 582.00 C 144.58 582.00 143.69 581.33 143.01 580.51 M 861.99 580.48 C 860.52 578.71 861.54 577.00 864.06 577.00 C 865.30 577.00 866.00 577.69 866.00 578.89 C 866.00 581.31 863.50 582.31 861.99 580.48 M 334.45 564.55 C 331.62 561.71 331.42 560.27 333.47 557.35 C 335.60 554.31 338.57 553.87 341.49 556.17 C 344.60 558.61 344.73 562.24 341.81 564.96 C 338.96 567.62 337.44 567.53 334.45 564.55 M 657.39 564.48 C 654.28 561.37 654.57 558.39 658.25 555.66 L 661.00 553.61 L 663.75 555.65 C 667.22 558.24 667.72 561.85 665.00 564.76 C 662.31 567.65 660.50 567.59 657.39 564.48 M 203.63 563.93 C 200.56 561.51 200.22 558.01 202.83 555.65 C 204.44 554.19 208.11 554.00 234.17 554.00 C 261.50 554.00 263.81 554.14 265.35 555.83 C 267.71 558.44 267.43 562.58 264.78 564.44 C 262.89 565.76 258.27 566.00 234.41 566.00 C 207.46 566.00 206.16 565.91 203.63 563.93 M 725.76 564.93 C 721.14 562.23 721.80 555.93 726.89 554.23 C 728.32 553.75 741.14 553.55 755.37 553.80 C 779.01 554.21 781.41 554.41 783.12 556.12 C 785.64 558.64 785.49 560.60 782.55 563.55 L 780.09 566.00 L 753.80 565.97 C 737.92 565.95 726.81 565.54 725.76 564.93 M 805.75 560.92 C 802.13 558.81 804.83 553.18 808.84 554.45 C 811.38 555.26 812.22 558.64 810.34 560.52 C 808.61 562.25 808.10 562.29 805.75 560.92 M 842.40 544.09 C 840.15 543.07 837.30 540.83 836.08 539.12 L 833.86 536.00 L 813.99 536.00 C 794.58 536.00 794.08 535.95 792.56 533.78 C 790.42 530.73 790.59 529.31 793.45 526.45 C 795.89 524.02 796.08 524.00 814.70 524.00 L 833.50 523.99 L 835.50 520.33 C 838.20 515.37 841.87 512.88 847.37 512.26 C 854.66 511.44 861.35 514.96 864.69 521.38 C 868.66 529.01 864.76 540.00 856.70 543.90 C 851.39 546.47 847.75 546.52 842.40 544.09 M 145.15 543.36 C 133.82 537.59 133.92 519.06 145.31 513.66 C 153.29 509.87 161.85 512.49 166.92 520.28 L 169.34 524.00 L 215.53 524.00 C 260.76 524.00 261.79 524.04 264.37 526.07 C 267.37 528.44 267.68 530.59 265.44 533.78 L 263.89 536.00 L 216.23 536.00 L 168.58 536.00 L 164.31 540.18 C 160.45 543.97 159.50 544.40 154.27 544.72 C 150.23 544.96 147.49 544.55 145.15 543.36 M 335.22 534.44 C 333.70 533.38 333.00 531.86 333.00 529.64 C 333.00 525.70 334.53 524.00 338.08 524.00 C 341.12 524.00 342.55 525.35 343.49 529.12 C 344.02 531.21 343.61 532.17 341.44 533.87 C 338.20 536.42 338.06 536.43 335.22 534.44 M 657.17 533.69 C 655.98 532.41 655.00 530.39 655.00 529.19 C 655.00 526.45 658.35 523.00 661.00 523.00 C 663.76 523.00 667.00 526.49 667.00 529.46 C 667.00 532.20 663.51 536.00 660.99 536.00 C 660.09 536.00 658.37 534.96 657.17 533.69 M 724.00 534.00 C 721.36 531.36 721.48 529.43 724.45 526.45 C 726.88 524.03 727.14 524.00 744.73 524.00 C 764.56 524.00 767.00 524.65 767.00 529.90 C 767.00 535.52 765.25 536.00 744.67 536.00 C 727.33 536.00 725.86 535.86 724.00 534.00 M 227.00 505.00 C 224.50 502.50 224.48 500.86 226.91 497.86 C 228.75 495.58 229.37 495.49 245.19 495.19 C 260.66 494.89 261.72 494.99 264.28 497.01 C 267.57 499.59 267.74 502.23 264.81 504.96 C 262.79 506.85 261.35 507.00 245.81 507.00 C 230.33 507.00 228.84 506.84 227.00 505.00 M 724.57 505.43 C 722.81 503.67 722.54 500.27 723.98 498.00 C 724.78 496.72 730.84 496.42 764.71 495.96 C 791.32 495.59 805.30 495.76 806.90 496.46 C 810.49 498.02 811.31 501.34 808.87 504.44 L 806.85 507.00 L 766.50 507.00 C 731.14 507.00 725.95 506.81 724.57 505.43 M 288.07 504.25 L 285.93 502.50 L 285.98 416.66 C 286.01 361.47 286.40 329.18 287.06 326.22 C 289.83 313.88 301.79 298.58 313.57 292.32 C 320.95 288.40 332.30 286.00 343.46 286.00 L 352.00 286.00 L 352.00 301.00 L 352.00 316.00 L 357.93 316.00 L 363.85 316.00 L 364.18 289.25 C 364.50 262.87 364.54 262.42 367.09 257.00 C 370.72 249.29 373.93 245.86 381.20 241.92 L 387.50 238.50 L 427.13 238.21 L 466.76 237.91 L 467.26 234.21 C 467.54 232.17 467.84 228.36 467.93 225.74 C 468.32 214.14 475.00 204.31 485.94 199.21 C 496.84 194.14 511.54 196.69 519.88 205.09 C 525.57 210.84 528.24 217.95 528.63 228.41 L 528.97 237.50 L 570.23 238.00 L 611.50 238.50 L 616.62 241.20 C 619.44 242.69 623.57 245.98 625.80 248.51 C 632.98 256.67 633.31 258.50 633.94 293.68 C 634.69 335.29 632.76 332.75 663.75 333.11 C 674.88 333.23 684.17 333.15 684.38 332.92 C 685.58 331.61 683.20 324.99 679.62 319.66 C 674.87 312.60 667.93 308.37 659.50 307.43 C 649.20 306.28 650.00 307.26 650.00 295.86 L 650.00 285.75 L 658.29 286.18 C 665.35 286.55 667.71 287.18 674.14 290.35 C 682.27 294.37 688.18 299.61 688.69 303.24 C 688.93 304.98 688.79 305.16 688.06 304.03 C 686.92 302.27 685.72 303.12 686.50 305.14 C 686.80 305.93 688.19 306.66 689.58 306.78 C 691.34 306.92 691.90 306.61 691.41 305.74 C 691.02 305.06 692.78 306.67 695.30 309.33 C 700.61 314.92 702.65 320.18 703.96 331.69 C 704.49 336.29 704.65 374.42 704.34 421.11 C 703.87 492.92 703.63 502.71 702.25 504.25 C 700.20 506.55 690.41 506.68 687.22 504.44 L 685.00 502.89 L 685.00 446.18 L 685.00 389.47 L 668.72 372.74 L 652.43 356.00 L 646.47 355.98 C 633.56 355.95 624.49 352.09 617.64 343.74 C 610.56 335.10 610.55 335.04 610.00 299.16 L 609.50 266.82 L 606.69 264.41 L 603.89 262.00 L 499.06 262.00 C 397.36 262.00 394.15 262.06 391.86 263.91 C 389.50 265.82 389.50 265.84 389.00 294.66 C 388.47 324.74 388.24 326.33 383.75 331.15 C 378.42 336.87 376.07 337.43 355.86 337.82 C 343.28 338.07 336.53 337.82 335.11 337.06 C 333.11 335.99 333.00 335.16 333.00 320.96 C 333.00 309.66 332.69 306.00 331.75 306.00 C 328.86 306.00 318.23 312.05 314.81 315.63 C 312.78 317.76 309.97 321.98 308.57 325.00 C 306.18 330.15 306.02 331.49 306.01 346.18 C 306.00 354.81 305.55 363.05 305.01 364.48 C 304.42 366.03 302.58 367.70 300.51 368.56 C 298.58 369.37 296.96 370.58 296.90 371.26 C 295.78 385.53 296.02 387.00 299.52 387.00 C 300.88 387.00 302.94 387.94 304.08 389.08 C 306.15 391.15 306.17 391.54 305.83 446.48 C 305.45 510.44 306.18 506.00 295.96 506.00 C 291.98 506.00 289.56 505.46 288.07 504.25 M 690.00 360.00 C 690.00 359.45 689.55 359.00 689.00 359.00 C 688.45 359.00 688.00 359.45 688.00 360.00 C 688.00 360.55 688.45 361.00 689.00 361.00 C 689.55 361.00 690.00 360.55 690.00 360.00 M 670.82 344.67 C 671.04 343.54 670.47 343.00 669.07 343.00 C 667.93 343.00 667.00 343.60 667.00 344.33 C 667.00 347.40 670.24 347.68 670.82 344.67 M 677.50 344.93 C 677.50 344.16 676.71 343.38 675.75 343.19 C 674.03 342.86 673.31 344.98 674.69 346.35 C 675.74 347.40 677.50 346.51 677.50 344.93 M 688.82 344.67 C 689.01 343.70 688.51 343.00 687.63 343.00 C 685.77 343.00 684.65 344.63 685.53 346.05 C 686.44 347.52 688.43 346.68 688.82 344.67 M 696.00 332.44 C 696.00 331.65 695.33 331.00 694.50 331.00 C 692.99 331.00 692.44 333.11 693.64 334.31 C 694.57 335.24 696.00 334.11 696.00 332.44 M 693.73 323.87 C 694.58 323.02 694.48 322.13 693.33 320.38 C 692.04 318.42 691.46 318.22 689.74 319.14 C 687.88 320.13 687.85 320.33 689.34 321.17 C 690.25 321.68 691.00 322.75 691.00 323.55 C 691.00 325.29 692.18 325.42 693.73 323.87 M 688.75 314.58 C 687.79 313.86 687.00 312.59 687.00 311.75 C 687.00 310.07 684.36 308.66 682.91 309.56 C 681.45 310.46 681.86 313.01 683.58 313.67 C 684.44 314.00 685.59 315.41 686.12 316.81 C 687.03 319.21 687.17 319.26 688.79 317.61 C 690.40 315.98 690.40 315.80 688.75 314.58 M 681.50 307.10 C 681.50 306.34 680.70 305.22 679.72 304.61 C 677.46 303.20 675.49 305.68 677.22 307.76 C 678.58 309.41 681.50 308.96 681.50 307.10 M 675.50 302.93 C 675.50 302.16 674.71 301.38 673.75 301.19 C 672.03 300.86 671.31 302.98 672.69 304.35 C 673.74 305.40 675.50 304.51 675.50 302.93 M 502.02 231.49 C 507.77 228.52 508.68 222.52 504.08 217.92 C 498.33 212.17 490.00 215.63 490.00 223.76 C 490.00 227.85 491.23 230.06 494.50 231.85 C 497.21 233.33 498.59 233.26 502.02 231.49 M 199.00 502.00 C 198.14 500.39 198.15 499.52 199.05 498.44 C 201.84 495.07 206.62 498.21 204.30 501.89 C 202.77 504.33 200.27 504.38 199.00 502.00 M 657.63 501.93 C 652.99 498.27 655.12 491.00 660.83 491.00 C 665.13 491.00 668.57 497.10 666.23 500.60 C 665.55 501.62 661.68 504.00 660.70 504.00 C 660.46 504.00 659.08 503.07 657.63 501.93 M 334.26 501.80 C 331.74 498.73 332.84 493.50 336.24 492.42 C 337.73 491.95 338.85 492.33 339.96 493.70 C 340.83 494.77 342.21 495.47 343.02 495.25 C 344.17 494.94 344.21 495.05 343.20 495.76 C 342.49 496.27 341.81 497.99 341.69 499.59 C 341.50 502.05 340.99 502.55 338.40 502.80 C 336.71 502.97 334.85 502.52 334.26 501.80 M 835.04 500.54 C 833.54 498.74 834.50 497.00 837.00 497.00 C 839.30 497.00 840.21 498.29 839.40 500.41 C 838.63 502.40 836.62 502.46 835.04 500.54 M 146.32 479.99 C 141.96 478.24 140.63 471.92 143.79 468.01 C 146.46 464.71 152.70 464.94 155.72 468.46 C 156.97 469.92 158.00 471.74 158.00 472.51 C 158.00 475.23 155.75 478.79 153.34 479.89 C 150.51 481.18 149.31 481.20 146.32 479.99 M 180.65 477.17 C 178.47 474.76 178.55 470.72 180.83 468.65 C 182.47 467.17 186.88 467.00 223.17 467.00 C 261.16 467.00 263.79 467.11 265.35 468.83 C 267.53 471.24 267.45 475.28 265.17 477.35 C 263.53 478.83 259.12 479.00 222.83 479.00 C 184.84 479.00 182.21 478.89 180.65 477.17 M 724.69 477.20 C 722.47 474.76 722.54 470.73 724.83 468.65 C 726.49 467.15 732.70 467.00 793.37 467.00 L 860.09 467.00 L 862.55 469.45 C 865.52 472.43 865.56 473.02 862.99 476.28 L 860.98 478.84 L 793.68 478.95 C 729.22 479.06 726.30 478.99 724.69 477.20 M 847.35 470.46 C 847.02 469.61 846.54 469.13 846.28 469.39 C 846.01 469.65 846.10 470.35 846.46 470.93 C 847.44 472.53 848.02 472.22 847.35 470.46 M 334.99 471.19 C 330.43 467.50 333.96 458.97 339.39 460.58 C 344.25 462.02 345.72 468.68 341.78 471.44 C 338.91 473.45 337.72 473.40 334.99 471.19 M 657.00 471.00 C 655.90 469.90 655.00 467.88 655.00 466.50 C 655.00 463.50 658.23 460.00 661.00 460.00 C 665.15 460.00 668.52 466.18 666.23 469.60 C 665.36 470.91 661.57 473.00 660.07 473.00 C 659.48 473.00 658.10 472.10 657.00 471.00 M 257.00 448.00 C 254.51 445.51 254.45 442.81 256.83 440.65 C 258.93 438.75 261.29 438.55 264.07 440.04 C 266.80 441.50 266.63 446.45 263.78 448.44 C 260.84 450.50 259.41 450.41 257.00 448.00 M 726.22 448.44 C 723.53 446.56 723.34 442.91 725.83 440.65 C 730.95 436.02 738.11 442.05 733.87 447.44 C 731.56 450.38 729.39 450.66 726.22 448.44 M 183.75 447.92 C 182.79 447.36 182.00 446.06 182.00 445.02 C 182.00 443.10 184.47 440.00 186.00 440.00 C 187.34 440.00 190.00 442.99 190.00 444.50 C 190.00 445.92 187.35 449.02 186.18 448.97 C 185.81 448.95 184.71 448.48 183.75 447.92 M 208.43 448.23 C 206.47 446.90 206.13 444.26 207.63 442.11 C 210.20 438.45 215.00 440.01 215.00 444.50 C 215.00 448.14 211.33 450.22 208.43 448.23 M 231.56 447.07 C 229.49 444.77 230.21 441.50 233.13 439.93 C 237.43 437.63 242.26 444.34 238.80 447.80 C 237.00 449.60 233.53 449.25 231.56 447.07 M 752.43 448.26 C 748.66 445.60 750.45 440.00 755.07 440.00 C 758.44 440.00 760.28 443.03 759.01 446.50 C 758.26 448.56 754.33 449.61 752.43 448.26 M 775.57 447.43 C 772.36 444.22 774.87 439.63 779.55 440.16 C 781.94 440.44 782.56 441.03 782.82 443.31 C 783.40 448.34 778.99 450.85 775.57 447.43 M 800.05 447.56 C 797.20 444.13 801.12 438.33 804.75 440.61 C 807.11 442.09 807.47 445.39 805.48 447.38 C 803.47 449.38 801.61 449.45 800.05 447.56 M 823.08 447.60 C 821.04 445.14 822.12 441.50 824.89 441.50 C 828.00 441.50 829.90 444.35 828.39 446.75 C 826.93 449.07 824.61 449.44 823.08 447.60 M 838.09 441.60 C 836.85 440.28 835.60 437.43 835.31 435.28 C 834.23 427.20 842.95 422.60 849.74 427.65 C 856.21 432.46 852.22 444.00 844.09 444.00 C 841.43 444.00 839.69 443.30 838.09 441.60 M 335.89 441.64 C 332.75 440.08 331.91 433.27 334.62 431.29 C 338.87 428.18 344.00 431.14 344.00 436.71 C 344.00 441.28 340.03 443.69 335.89 441.64 M 656.57 440.43 C 653.10 436.96 655.99 430.00 660.90 430.00 C 666.27 430.00 669.08 436.81 665.17 440.35 C 662.86 442.44 658.62 442.48 656.57 440.43 M 155.04 426.55 C 152.96 424.04 154.19 421.50 157.50 421.50 C 159.57 421.50 160.58 422.05 160.82 423.30 C 161.22 425.36 159.35 428.00 157.50 428.00 C 156.81 428.00 155.70 427.35 155.04 426.55 M 185.46 425.94 C 178.25 423.84 174.42 415.72 177.34 408.72 C 181.50 398.76 195.71 398.55 200.38 408.38 L 202.09 412.00 L 213.82 412.00 C 226.73 412.00 230.00 413.11 230.00 417.50 C 230.00 422.01 226.83 423.00 212.39 423.00 C 201.40 423.00 198.50 423.33 194.86 424.98 C 190.03 427.17 189.79 427.19 185.46 425.94 M 724.57 420.43 C 722.38 418.23 722.61 414.66 725.10 412.40 C 726.90 410.77 729.12 410.45 740.66 410.17 L 754.11 409.84 L 771.70 391.94 L 789.29 374.03 L 789.40 367.09 C 789.48 361.70 789.97 359.51 791.60 357.32 C 797.85 348.95 810.60 348.59 816.91 356.61 C 822.17 363.30 821.45 371.45 814.99 378.38 C 811.26 382.37 810.93 382.51 804.32 382.69 L 797.50 382.87 L 778.03 402.44 L 758.57 422.00 L 742.36 422.00 C 728.95 422.00 725.87 421.73 724.57 420.43 M 792.56 418.78 C 791.70 417.56 791.00 416.04 791.00 415.41 C 791.00 413.34 795.11 409.00 797.07 409.00 C 801.70 409.00 804.16 415.69 800.96 419.55 C 799.10 421.79 794.36 421.35 792.56 418.78 M 658.89 412.34 C 658.01 412.10 656.68 410.77 655.93 409.38 C 652.79 403.51 661.60 397.73 665.40 403.17 C 666.28 404.42 667.00 406.21 667.00 407.15 C 667.00 408.74 662.48 413.14 661.12 412.88 C 660.78 412.82 659.78 412.57 658.89 412.34 M 334.20 410.80 C 330.35 406.95 335.47 399.52 340.41 401.78 C 343.17 403.03 344.48 407.23 342.99 410.02 C 341.78 412.28 336.18 412.78 334.20 410.80 M 246.08 395.52 L 234.50 384.04 L 236.03 381.27 C 237.03 379.47 238.54 378.39 240.36 378.18 C 242.74 377.90 244.74 379.42 254.07 388.62 C 261.55 395.99 265.00 400.10 265.00 401.64 C 265.00 403.96 261.66 407.00 259.11 407.00 C 258.32 407.00 252.46 401.83 246.08 395.52 M 825.72 395.75 C 825.09 394.01 826.80 391.00 828.41 391.00 C 830.40 391.00 832.12 393.51 831.41 395.37 C 830.68 397.28 826.37 397.57 825.72 395.75 M 724.22 380.44 C 719.54 377.16 720.83 375.29 744.65 350.79 C 757.10 337.98 768.10 327.11 769.08 326.63 C 774.07 324.19 778.71 329.44 776.02 334.46 C 774.13 338.00 729.61 382.00 727.92 382.00 C 727.11 382.00 725.44 381.30 724.22 380.44 M 170.50 374.59 C 163.88 367.98 168.24 357.60 177.63 357.60 C 180.48 357.60 181.89 358.32 184.24 360.94 C 186.83 363.84 187.15 364.83 186.67 368.39 C 185.95 373.81 182.33 377.00 176.90 377.00 C 174.01 377.00 172.24 376.33 170.50 374.59 M 209.00 375.21 C 201.56 372.89 202.80 362.00 210.50 362.00 C 216.04 362.00 218.84 367.93 215.53 372.65 C 213.93 374.94 211.36 375.94 209.00 375.21 M 252.71 371.30 C 249.84 368.72 239.74 358.94 230.25 349.56 C 212.49 332.02 211.13 330.00 214.83 326.65 C 218.86 323.01 220.45 324.14 243.66 347.20 C 255.95 359.41 266.00 369.99 266.00 370.70 C 266.00 372.70 262.24 376.00 259.96 376.00 C 258.83 376.00 255.57 373.89 252.71 371.30 M 259.65 340.17 C 257.50 337.79 257.56 335.71 259.83 333.65 C 263.48 330.35 268.00 332.20 268.00 337.00 C 268.00 341.88 262.94 343.80 259.65 340.17 M 723.50 339.63 C 722.35 337.89 722.20 336.62 722.90 334.77 C 724.06 331.70 726.25 330.77 729.42 331.97 C 732.65 333.20 733.57 336.48 731.56 339.55 C 729.47 342.74 725.56 342.78 723.50 339.63 M 172.36 327.51 C 172.02 326.60 172.21 325.39 172.80 324.80 C 174.32 323.28 177.21 324.67 176.81 326.74 C 176.37 329.04 173.16 329.59 172.36 327.51 M 798.69 326.88 C 795.03 324.76 794.87 319.12 798.40 316.77 C 802.05 314.32 807.59 318.45 806.53 322.84 C 805.88 325.55 803.48 328.02 801.56 327.97 C 800.98 327.95 799.68 327.46 798.69 326.88 M 231.29 307.71 C 222.11 298.52 219.00 294.78 219.00 292.91 C 219.00 289.68 220.73 288.00 224.04 288.00 C 226.09 288.00 229.35 290.70 238.59 300.03 C 245.85 307.37 250.62 312.99 250.81 314.44 C 251.13 316.91 247.94 320.00 245.07 320.00 C 244.26 320.00 238.06 314.47 231.29 307.71 M 744.20 317.80 C 741.88 315.48 742.95 312.30 747.48 308.13 C 752.06 303.90 754.68 303.08 756.80 305.20 C 759.08 307.48 758.09 311.14 754.12 315.12 C 750.14 319.09 746.48 320.08 744.20 317.80 M 712.57 305.43 C 709.41 302.27 710.76 299.84 721.80 288.80 C 732.73 277.87 735.76 276.16 738.80 279.20 C 741.78 282.18 740.09 285.17 729.23 296.13 C 718.19 307.26 715.76 308.62 712.57 305.43 M 266.98 297.42 C 262.70 293.25 258.97 288.98 258.69 287.93 C 258.42 286.88 259.09 284.89 260.20 283.48 C 263.02 279.89 265.10 280.82 274.25 289.83 C 282.53 297.97 284.10 301.80 280.07 303.96 C 276.49 305.88 274.80 305.03 266.98 297.42 M 767.71 287.99 C 764.37 285.36 763.50 281.14 765.36 276.68 C 767.08 272.57 769.54 271.00 774.30 271.00 C 782.42 271.00 786.54 282.28 780.41 287.75 C 777.16 290.65 771.24 290.76 767.71 287.99 M 697.87 283.61 C 697.22 282.20 697.13 280.59 697.64 279.69 C 698.11 278.85 705.81 270.51 714.75 261.17 L 731.00 244.18 L 731.00 237.84 C 731.01 230.47 733.14 226.11 738.24 222.99 C 746.41 218.01 756.97 223.18 758.82 233.08 C 760.62 242.72 753.93 251.00 744.33 251.00 C 740.80 251.00 739.52 252.05 722.97 268.50 C 707.51 283.87 704.98 286.00 702.17 286.00 C 699.75 286.00 698.69 285.41 697.87 283.61 M 279.21 274.10 C 272.77 268.11 265.54 261.18 263.14 258.70 C 259.11 254.54 258.55 254.27 255.64 255.11 C 246.26 257.84 237.12 249.47 238.28 239.21 C 238.88 233.88 241.44 230.11 246.07 227.75 C 256.10 222.64 266.99 229.76 267.00 241.43 L 267.00 246.36 L 282.50 261.97 C 291.02 270.55 298.00 278.32 298.00 279.22 C 298.00 280.84 293.56 285.00 291.83 285.00 C 291.33 285.00 285.65 280.10 279.21 274.10 M 238.75 276.75 C 238.00 274.71 239.04 273.00 241.02 273.00 C 243.30 273.00 244.21 274.30 243.40 276.41 C 242.67 278.30 239.41 278.54 238.75 276.75 M 679.56 265.07 C 678.53 263.92 678.06 262.37 678.42 261.24 C 679.27 258.58 696.40 242.00 698.30 242.00 C 700.55 242.00 703.00 244.79 702.99 247.32 C 702.98 248.66 699.81 252.86 694.73 258.25 C 685.91 267.62 683.04 268.91 679.56 265.07 M 325.68 264.69 C 324.68 264.04 317.28 256.53 309.24 248.00 C 300.09 238.31 293.22 231.88 290.87 230.83 C 283.23 227.41 281.61 216.42 287.92 210.78 C 295.35 204.14 306.95 210.70 305.76 220.88 C 305.53 222.87 305.15 225.00 304.92 225.62 C 304.69 226.23 311.36 233.98 319.75 242.84 C 328.14 251.70 335.00 259.64 335.00 260.48 C 335.00 262.57 331.38 266.01 329.25 265.94 C 328.29 265.91 326.68 265.35 325.68 264.69 M 656.57 244.43 C 654.07 241.93 654.67 240.30 660.01 234.99 C 665.38 229.64 667.72 228.93 670.35 231.83 C 672.90 234.65 672.39 236.19 667.22 241.29 C 662.20 246.23 659.24 247.10 656.57 244.43 M 335.00 236.71 C 332.20 235.30 331.22 231.64 333.05 229.44 C 334.88 227.23 337.63 227.72 339.95 230.66 C 341.77 232.98 341.86 233.57 340.68 235.35 C 338.92 238.01 338.01 238.23 335.00 236.71 M 352.73 221.23 C 344.90 213.36 343.36 210.04 346.20 207.20 C 348.99 204.41 352.44 205.89 359.16 212.75 C 362.80 216.46 366.29 220.51 366.92 221.75 C 368.70 225.24 365.96 229.00 361.64 229.00 C 360.99 229.00 356.98 225.50 352.73 221.23 M 687.20 222.80 C 686.54 222.14 686.00 220.20 686.00 218.50 C 686.00 214.70 687.56 213.00 691.05 213.00 C 694.11 213.00 697.00 215.76 697.00 218.67 C 697.00 222.89 690.16 225.76 687.20 222.80 M 392.00 215.31 C 388.24 213.96 388.00 212.23 388.00 186.31 C 388.00 162.33 388.11 160.89 390.00 159.00 C 392.41 156.59 393.84 156.50 396.78 158.56 C 398.98 160.10 399.00 160.38 399.00 186.06 C 399.00 210.67 398.90 212.10 397.00 214.00 C 394.92 216.08 394.49 216.19 392.00 215.31 M 422.17 213.69 C 417.70 208.92 420.22 199.00 425.90 199.00 C 430.94 199.00 433.93 204.66 431.99 210.52 C 430.12 216.18 425.82 217.57 422.17 213.69 M 565.04 213.82 C 563.08 211.71 563.01 210.54 563.15 179.57 C 563.31 144.39 563.53 143.00 568.87 143.00 C 574.92 143.00 575.00 143.45 575.00 178.38 C 575.00 204.86 574.75 210.59 573.47 213.05 C 571.61 216.66 567.99 216.98 565.04 213.82 M 626.75 214.92 C 623.88 213.25 624.74 210.16 629.46 205.19 C 633.85 200.57 633.95 200.52 636.71 202.03 C 641.00 204.39 640.78 207.25 635.94 211.94 C 631.65 216.10 629.81 216.70 626.75 214.92 M 597.20 213.80 C 596.37 212.97 596.00 207.87 596.00 197.32 C 596.00 182.24 596.03 182.03 598.43 180.45 C 600.31 179.22 601.33 179.11 602.91 179.95 C 606.41 181.83 607.00 184.46 607.00 198.28 C 607.00 210.00 606.77 211.90 605.17 213.35 C 603.03 215.28 598.92 215.52 597.20 213.80 M 658.22 206.44 C 650.71 201.18 651.59 187.74 659.67 184.37 C 669.29 180.34 679.07 188.62 676.55 198.65 C 676.18 200.12 674.38 202.82 672.54 204.66 C 669.77 207.43 668.45 208.00 664.82 208.00 C 662.41 208.00 659.44 207.30 658.22 206.44 M 719.99 205.49 C 718.89 204.16 718.93 203.64 720.26 202.31 C 722.40 200.17 725.23 201.36 724.82 204.24 C 724.43 206.97 721.79 207.66 719.99 205.49 M 321.20 197.80 C 319.72 196.32 319.63 192.35 321.06 191.46 C 323.21 190.13 327.00 191.95 327.00 194.32 C 327.00 196.75 325.32 199.00 323.50 199.00 C 322.89 199.00 321.86 198.46 321.20 197.80 M 452.57 185.43 C 451.35 184.20 451.00 181.59 451.00 173.58 C 451.00 164.90 451.28 163.05 452.83 161.65 C 455.13 159.57 458.39 159.53 460.43 161.57 C 461.65 162.80 462.00 165.41 462.00 173.42 C 462.00 182.10 461.72 183.95 460.17 185.35 C 457.87 187.43 454.61 187.47 452.57 185.43 M 532.07 183.37 C 530.93 181.92 530.00 179.95 530.00 179.00 C 530.00 175.97 533.91 172.00 536.90 172.00 C 540.10 172.00 544.00 175.67 544.00 178.68 C 544.00 182.05 540.22 186.00 537.00 186.00 C 535.11 186.00 533.45 185.11 532.07 183.37 M 419.56 180.78 C 416.32 176.15 418.88 170.00 424.06 170.00 C 427.66 170.00 431.00 173.13 431.00 176.50 C 431.00 182.24 422.75 185.33 419.56 180.78 M 347.38 176.55 C 346.68 174.73 347.70 173.00 349.45 173.00 C 351.28 173.00 352.10 175.50 350.72 176.88 C 349.20 178.40 348.05 178.29 347.38 176.55 M 483.12 171.22 C 481.79 168.73 483.56 166.00 486.50 166.00 C 487.82 166.00 489.33 166.78 489.87 167.72 C 491.24 170.18 489.44 173.00 486.50 173.00 C 485.16 173.00 483.64 172.20 483.12 171.22 M 596.71 164.38 C 595.36 163.03 596.00 160.07 597.86 159.07 C 600.30 157.77 603.35 159.91 602.85 162.57 C 602.48 164.52 598.14 165.80 596.71 164.38 M 505.17 148.69 C 502.43 145.77 502.25 139.99 504.83 137.65 C 508.65 134.20 516.64 136.71 517.05 141.50 C 517.40 145.45 516.97 147.03 515.00 149.00 C 512.30 151.70 507.87 151.56 505.17 148.69 M 425.50 146.00 C 424.58 144.51 425.86 143.00 428.06 143.00 C 429.33 143.00 430.00 143.69 430.00 145.00 C 430.00 147.12 426.65 147.86 425.50 146.00 M 440.71 629.38 C 439.55 628.22 439.90 625.33 441.33 624.14 C 443.17 622.61 446.34 625.01 445.85 627.57 C 445.48 629.50 442.04 630.71 440.71 629.38 M 440.53 566.05 C 440.17 565.46 440.16 564.06 440.52 562.93 C 441.53 559.75 446.50 560.64 446.50 564.00 C 446.50 565.96 445.93 566.57 443.84 566.81 C 442.38 566.98 440.89 566.63 440.53 566.05 M 403.72 600.87 C 401.54 599.64 401.48 596.14 403.64 595.31 C 405.62 594.55 408.39 596.14 408.81 598.29 C 409.23 600.44 405.94 602.11 403.72 600.87 M 403.23 557.83 C 400.20 554.80 404.14 550.90 407.61 553.48 C 409.12 554.60 409.28 555.25 408.39 556.69 C 407.01 558.95 404.83 559.43 403.23 557.83 M 395.52 439.64 C 393.34 438.04 394.31 434.00 396.87 434.00 C 398.90 434.00 401.00 435.86 401.00 437.66 C 401.00 439.83 397.50 441.09 395.52 439.64 M 421.66 361.52 C 418.68 358.53 422.23 354.97 425.65 357.51 C 427.09 358.58 427.27 359.27 426.43 360.63 C 424.93 363.08 423.49 363.35 421.66 361.52 M 443.72 326.87 C 441.36 325.54 441.55 322.28 444.05 321.48 C 446.29 320.77 449.00 322.47 449.00 324.59 C 449.00 326.61 445.76 328.01 443.72 326.87 M 546.71 627.38 C 546.32 626.99 546.00 625.59 546.00 624.27 C 546.00 622.24 546.43 621.92 548.75 622.18 C 550.93 622.43 551.50 623.02 551.50 625.00 C 551.50 626.75 550.89 627.59 549.46 627.79 C 548.34 627.95 547.10 627.77 546.71 627.38 M 572.11 600.63 C 570.60 598.82 571.75 596.00 573.98 596.00 C 576.34 596.00 578.19 598.35 577.41 600.37 C 576.65 602.36 573.66 602.50 572.11 600.63 M 592.60 379.69 C 590.32 378.03 590.87 374.50 593.40 374.50 C 596.26 374.50 597.83 377.60 595.94 379.49 C 594.65 380.78 594.12 380.81 592.60 379.69 Z" stroke-linecap="round"/>
</g>
</g>
</g>

  </svg>